# xmcd
#
# Track frame offsets:
# 150
# 16015
# 31804
# 44761
# 58799
# 74722
# 91405
# 103459
# 119165
# 133413
# 145212
# 159965
# 175136
# 188753
# 202827
# 222961
#
# Disc length: 3174 seconds
#
#
# Revision: 0
# Processed by: cddbd v1.5.2PL0 Copyright (c) Steve Scherf et al.
# Submitted via: FreeRIP 2.941 
#
DISCID=f40c6410
DTITLE=MARCOS and BELUTTI - MARCOS  and BELUTTI AO VIVO
DYEAR=2009
DGENRE=SERTANEJO
TTITLE0=FRIO DA MADRUGADA
TTITLE1=OUTRA VEZ LA VOU EU
TTITLE2=PRA DANCAR VANEIRA
TTITLE3=COMO E BOM
TTITLE4=FINGE QUE ME AMA, FINJO QUE ACREDITO
TTITLE5=E SO LAIA,LAIA
TTITLE6=ACABOU PRA MIM
TTITLE7=SEU BRINQUEDO QUEBROU
TTITLE8=AI QUE VONTADE QUE DA
TTITLE9=BORA SE ACABAR
TTITLE10=VEM ME AMAR
TTITLE11=FAÇA DE NOVO
TTITLE12=TENTAÇÃO CRUEL
TTITLE13=VOCE NAO MERECE
TTITLE14=ME PERDI
TTITLE15=TUDO NO OLHAR
EXTD=
EXTT0=
EXTT1=
EXTT2=
EXTT3=
EXTT4=
EXTT5=
EXTT6=
EXTT7=
EXTT8=
EXTT9=
EXTT10=
EXTT11=
EXTT12=
EXTT13=
EXTT14=
EXTT15=
PLAYORDER=
